Coordinates
version=1
nRows=19
nColumns=36
inDegrees=yes

Units are S.I. units (second, meters, Newtons, ...)
If the header above contains a line with 'inDegrees', this indicates whether rotational values are in degrees (yes) or radians (no).

endheader
time	pelvis_tilt	pelvis_list	pelvis_rotation	pelvis_tx	pelvis_ty	pelvis_tz	hip_flexion_r	hip_adduction_r	hip_rotation_r	knee_angle_r	knee_angle_r_beta	ankle_angle_r	subtalar_angle_r	mtp_angle_r	hip_flexion_l	hip_adduction_l	hip_rotation_l	knee_angle_l	knee_angle_l_beta	ankle_angle_l	subtalar_angle_l	mtp_angle_l	lumbar_extension	lumbar_bending	lumbar_rotation	arm_flex_r	arm_add_r	arm_rot_r	elbow_flex_r	pro_sup_r	arm_flex_l	arm_add_l	arm_rot_l	elbow_flex_l	pro_sup_l
      0.00000000	    -11.04363182	     -0.24899135	      8.16292553	      1.02408342	      0.92672766	      0.00724671	     18.39678167	      2.39686362	     -1.05451131	     11.00431859	      0.19206159	      8.12305588	    -12.49931930	     -5.80770138	     29.39786843	     -5.22137330	      0.04264300	     32.71434365	      0.57097301	      5.71435777	     -7.20594913	     -5.80770138	     -7.20073932	      1.51871161	     -2.05796422	      7.30967677	    -17.04457880	      9.50806583	    107.29238425	     95.16595286	      5.80925908	    -12.90951168	     24.21571480	    105.32602453	     93.57756122
      0.01666670	    -13.04550785	     -0.12203221	      5.96105187	      1.01774001	      0.92385517	      0.00831066	     21.84908239	      2.80446862	      1.47288829	     13.13655575	      0.22927615	     10.58340457	    -12.83118098	     -6.10359895	     32.65825604	     -5.48300086	     -0.92406357	     35.57595669	      0.62091758	      6.59207500	     -6.02653863	     -6.10359895	     -4.82312315	      2.13029729	     -1.65812377	      9.15256049	    -18.53240871	     10.67457681	    104.66368719	     91.64770769	      4.11664535	    -13.19061638	     21.32605879	    106.13194462	     91.05259768
      0.03333330	    -13.60464955	      0.29312189	      5.47677593	      1.02260190	      0.92390514	      0.01256628	     22.01980685	      2.70875460	      1.26278404	     12.82841930	      0.22389815	     10.60738195	    -13.03539157	     -6.16196609	     33.66953472	     -5.78626691	     -2.29874938	     37.71577647	      0.65826448	      6.92326538	     -7.36253142	     -6.16196609	     -3.93658160	      1.43225937	     -1.24711755	      9.24109932	    -19.38196209	     10.11970770	    103.10805555	     90.57306285	      4.58527027	    -14.11876311	     20.37236261	    104.90552567	     89.86061323
      0.05000000	    -13.66552367	      0.86947979	      5.15697952	      1.02299222	      0.92393800	      0.01343265	     22.04653947	      2.35154739	      1.51584491	     12.99900352	      0.22687541	     11.44163104	    -12.77429044	     -6.19411580	     33.66080824	     -5.61135917	     -3.52571541	     39.94746352	      0.69721477	      8.71563376	     -9.05622108	     -6.19411580	     -4.18566131	      0.70285393	     -0.81454481	      9.15465509	    -19.95813962	      9.22203536	    102.90019456	     90.30793684	      4.64264968	    -14.34619028	     19.10889976	    105.02179797	     89.27014242
      0.06666670	    -13.94232523	      1.13115701	      5.35737412	      1.01435256	      0.92348549	      0.01375460	     22.65035603	      2.12721475	      1.43921156	     13.24205452	      0.23111745	     11.65294357	    -12.92691824	     -6.20611805	     34.29260839	     -5.38415723	     -4.31111579	     42.06784881	      0.73422247	     10.34241153	    -10.48142408	     -6.20611805	     -4.63360261	      0.52580175	     -0.99069846	      9.78289973	    -20.25876325	      8.47804624	    102.79150334	     90.15293898	      5.50251319	    -14.67559819	     18.45874958	    105.14190309	     89.06906478
      0.08333330	    -13.91033137	      1.43771540	      5.85137194	      1.02301254	      0.92659945	      0.01426106	     22.13709982	      1.72420475	      1.27478539	     12.52410529	      0.21858687	     11.71865339	    -12.61613060	     -6.25034611	     33.91530350	     -5.01428578	     -4.55868364	     44.12297553	      0.77009120	     12.18719813	    -10.62904176	     -6.25034611	     -4.70312169	      0.27341728	     -1.29328512	      9.39477866	    -20.18212352	      7.38975763	    102.64879763	     89.59417060	      5.36641588	    -14.77289815	     17.40732127	    104.95682602	     88.46516331
      0.10000000	    -13.87212727	      1.62703499	      6.29701469	      1.02246791	      0.92688705	      0.01452903	     21.75852534	      1.49663329	      1.07686902	     12.16976571	      0.21240248	     12.05716152	    -12.59833439	     -6.26470068	     33.68225600	     -4.79533616	     -5.01895541	     46.27600255	      0.80766861	     14.17100376	    -11.19828770	     -6.26470068	     -4.91143644	      0.23256718	     -1.54567264	      9.37427297	    -20.19232019	      6.52320814	    102.37706292	     89.37143899	      5.32921446	    -14.99510659	     17.03219456	    105.01587876	     88.30767974
      0.11666670	    -14.03255884	      1.82277953	      6.54003716	      1.01422128	      0.92370592	      0.01459390	     22.15682260	      1.21048592	      0.85561736	     12.31461586	      0.21493059	     12.37230906	    -12.66942416	     -6.31866987	     33.68606400	     -4.56497598	     -5.24476881	     49.05945571	      0.85624903	     15.05762776	    -11.75773593	     -6.31866987	     -5.20945821	      0.26714288	     -1.68879909	      9.81727375	    -20.24550513	      5.27571061	    102.00252843	     88.56875274	      5.68676663	    -15.24020377	     16.23706193	    105.25561542	     87.67781182
      0.13333330	    -14.06698701	      2.10386313	      6.64895808	      1.01790167	      0.92475006	      0.01796985	     22.29552589	      0.94697137	      0.96408986	     12.45633600	      0.21740408	     12.30380279	    -12.84328116	     -6.36017127	     33.25725345	     -4.31937385	     -5.57760034	     51.19148357	      0.89345994	     13.27274339	    -12.74837167	     -6.36017127	     -5.65372702	      0.18857401	     -1.84470180	      9.81375045	    -20.41213920	      4.40950332	    102.24884451	     88.07434148	      5.44895200	    -15.63440097	     15.38431089	    106.02047630	     87.39843334
      0.15000000	    -14.23449724	      2.39746906	      6.61399211	      1.01832667	      0.92483703	      0.01837487	     22.88730882	      0.63801807	      0.90178758	     13.03682487	      0.22753552	     11.90751327	    -13.12738484	     -6.39286432	     32.78438202	     -4.09059703	     -6.18467053	     52.81419323	      0.92178156	      9.93502564	    -14.39790393	     -6.39286432	     -5.88253670	      0.08861311	     -2.01734165	      9.53092144	    -20.52540412	      3.80085118	    102.17076983	     87.71339944	      5.31998731	    -16.24427388	     14.58855430	    106.70768880	     87.14597104
      0.16666670	    -14.47396300	      2.69087221	      6.67437519	      1.01818685	      0.92536248	      0.01882190	     23.37128739	      0.34721291	      0.97491738	     13.43685087	      0.23451729	     11.47099032	    -13.56761882	     -6.41686275	     32.00305476	     -3.67477196	     -6.42933355	     53.87279637	      0.94025767	      5.98347221	    -16.55995695	     -6.41686275	     -6.07258021	      0.04649339	     -2.31303801	      9.38660152	    -20.77424548	      3.45551018	    102.14900389	     87.53008668	      5.09812458	    -16.75298019	     13.90892407	    107.23384065	     87.05662899
      0.18333330	    -14.65297116	      2.75421150	      6.61153278	      1.01878793	      0.92297036	      0.01881517	     23.90610333	      0.36313991	      1.30959794	     14.14038565	      0.24679629	     11.42357030	    -14.08773005	     -6.44668263	     31.07359993	     -3.33268631	     -6.14845479	     54.84943155	      0.95730317	      5.04817114	    -17.60741135	     -6.44668263	     -6.09122030	      0.21923041	     -2.57687943	      9.03813081	    -21.22335157	      3.17504889	    101.86683040	     87.33491368	      4.68139013	    -17.03818139	     13.23765858	    107.97188688	     86.97791296
      0.20000000	    -14.70505038	      2.67472577	      6.70880301	      1.01849100	      0.92337937	      0.01880033	     24.26832883	      0.44631041	      1.55610163	     14.79529404	      0.25822659	     11.60271112	    -14.26938773	     -6.47017107	     29.88195455	     -3.08531144	     -5.73921942	     56.25202728	      0.98178309	      5.35520034	    -17.14473189	     -6.47017107	     -6.18214749	      0.54066673	     -2.79718108	      8.88143728	    -21.67135483	      2.84567097	    101.46328072	     87.10654322	      4.69740953	    -17.26080814	     12.80083881	    108.43822125	     86.79548031
      0.21666670	    -14.59634585	      2.43757516	      6.83697282	      1.01898771	      0.92540620	      0.01885619	     24.28931320	      0.77304373	      1.81947449	     15.15591185	      0.26452056	     11.62756891	    -14.81535997	     -6.50899768	     28.37096401	     -3.00287458	     -5.44913366	     57.27738615	      0.99967898	      5.88483376	    -16.29632931	     -6.50899768	     -6.72694960	      1.17355723	     -3.28430066	      9.08617248	    -22.13518144	      2.93104880	    101.18878139	     86.86336388	      4.91728675	    -17.61997309	     12.65753048	    108.92922171	     86.63796496
      0.23333330	    -14.42932594	      2.03663076	      6.95858077	      1.01872750	      0.92021371	      0.01894916	     24.53305315	      1.24876601	      1.98535762	     16.00743672	      0.27938248	     12.06245628	    -15.18969988	     -6.53222993	     27.23984453	     -3.05789679	     -5.08386736	     59.33794559	      1.03564252	      5.57299684	    -16.34426675	     -6.53222993	     -7.23037157	      1.91199581	     -3.63379958	      9.41529070	    -22.77598552	      2.98042477	    101.24653746	     86.67209547	      5.70121833	    -18.07935569	     12.78353334	    109.34310068	     86.50455712
      0.25000000	    -14.29792487	      1.69314215	      7.08612671	      1.01919918	      0.92022056	      0.01847025	     24.77998584	      1.65814242	      2.26907300	     16.81598880	      0.29349437	     12.07316451	    -16.03142065	     -6.56694358	     25.43982640	     -2.94225850	     -4.83569166	     59.92907671	      1.04595971	      5.93401119	    -15.20042170	     -6.56694358	     -7.74877017	      2.67809514	     -4.07147239	      9.39887374	    -23.43560744	      3.06073859	    101.64199942	     86.38805200	      6.65577580	    -18.70057900	     13.28403067	    109.88496595	     86.34999823
      0.26666670	    -14.26974763	      1.34520924	      7.21555036	      1.01915125	      0.92270144	      0.01774191	     24.96851762	      2.05161549	      2.50479298	     17.23538778	      0.30081426	     11.75556137	    -17.05604550	     -6.66193031	     23.66878098	     -2.71661472	     -4.60676633	     59.61597955	      1.04049513	      5.46028945	    -14.40848751	     -6.66193031	     -8.20986424	      3.30538861	     -3.90003057	      9.04957265	    -24.18499971	      1.75185622	    102.10757906	     85.55517411	      8.29005981	    -19.04719992	     14.14057565	    109.45538280	     85.95883899
      0.28333330	    -14.24285232	      0.87910152	      7.37894998	      1.01968818	      0.91921668	      0.01753722	     25.15391169	      2.54664575	      2.63558893	     17.61555193	      0.30744938	     11.58328406	    -17.43930811	     -6.68819744	     21.28123490	     -2.60486568	     -4.49058486	     58.07486401	      1.01359759	      5.54156313	    -13.56808479	     -6.68819744	     -8.44569613	      4.09163938	     -4.34294691	      9.09835448	    -24.79038798	      0.87212002	    102.15086132	     85.27637756	      9.19334148	    -19.48907060	     13.94966894	    109.49231034	     85.74621718
      0.30000000	    -14.54190929	      0.37337258	      7.63643513	      1.01510871	      0.91568385	      0.01959198	     25.91595348	      3.08205346	      2.61419056	     18.20631949	      0.31776022	     11.68155849	    -18.22626743	     -6.69859510	     20.14278108	     -2.61050871	     -4.00680377	     56.86347908	      0.99245493	      5.58781510	    -12.88941940	     -6.69859510	     -8.56480416	      4.71615845	     -4.77994059	      9.28292222	    -25.25311892	     -0.09573360	    102.29263278	     85.12272185	     10.46623908	    -19.88322734	     13.49979549	    109.53172897	     85.64861132
